<svg width="42" height="39" xmlns="http://www.w3.org/2000/svg" xmlns:xlink="http://www.w3.org/1999/xlink" overflow="hidden"><g transform="translate(-613 -204)"><path d="M633.521 224C633.15 224 632.862 224.324 632.862 224.684L632.862 230.786 627.416 233.834C627.128 234.036 627.003 234.397 627.166 234.717 627.291 234.919 627.541 235 627.745 235 627.828 235 627.953 234.96 628.033 234.919L633.479 231.828 638.884 234.919C638.967 234.96 639.089 235 639.172 235 639.38 235 639.667 234.919 639.751 234.717 639.997 234.356 639.913 233.995 639.584 233.797L634.183 230.746 634.183 224.684C634.183 224.324 633.892 224 633.521 224Z" fill="#0F6FC6" fill-rule="evenodd"/><path d="M634.163 206.234C635.882 206.234 637.233 207.588 637.233 209.22L637.233 209.618 637.192 209.618C636.291 209.421 636.006 208.227 636.006 208.227 635.964 207.986 635.758 207.789 635.514 207.709 635.483 207.702 635.449 207.699 635.418 207.699 635.198 207.699 634.964 207.812 634.858 207.986 633.672 209.578 631.053 209.578 631.011 209.578 630.97 209.578 630.846 209.578 630.808 209.618L630.808 209.22C630.808 207.588 632.197 206.234 633.878 206.234ZM637.766 211.37C637.845 211.45 637.927 211.531 637.927 211.688 637.927 211.848 637.807 212.009 637.724 212.086L637.724 211.37ZM630.358 211.29 630.358 212.166C630.193 212.049 630.069 211.888 630.069 211.688 630.069 211.571 630.152 211.45 630.234 211.37 630.276 211.37 630.276 211.37 630.358 211.29ZM635.105 209.501C635.349 209.939 635.758 210.414 636.332 210.654L636.332 212.447C636.415 213.6 635.473 214.477 634.328 214.477L633.713 214.477C632.606 214.477 631.627 213.6 631.627 212.447L631.627 210.812C632.486 210.695 633.957 210.414 635.105 209.501ZM634.775 215.751 634.775 216.068 634.737 216.068 634.04 216.824 633.345 216.189 633.345 215.751ZM633.878 205C631.462 205 629.499 206.873 629.499 209.22L629.499 210.297C629.09 210.654 628.842 211.173 628.842 211.688 628.842 212.644 629.619 213.44 630.52 213.48 630.808 214.236 631.338 214.874 632.036 215.272L632.036 215.63 629.375 216.627C629.09 216.744 627 217.543 627 220.131L627 222.358C627 222.716 627.33 222.997 627.656 222.997L629.293 222.997C629.66 222.997 629.987 222.716 629.987 222.358 629.987 222 629.66 221.723 629.293 221.723L628.268 221.723 628.268 220.051C628.268 218.339 629.702 217.82 629.784 217.78L629.825 217.78 632.28 216.824 633.548 218.058C633.672 218.178 633.878 218.258 633.998 218.258 634.163 218.258 634.366 218.218 634.49 218.058L635.717 216.824 638.175 217.78 638.216 217.78C638.257 217.78 639.687 218.339 639.687 220.051L639.687 221.723 631.503 221.723C631.135 221.723 630.846 222 630.846 222.358 630.846 222.716 631.135 222.997 631.503 222.997L640.344 222.997C640.364 223 640.385 223 640.405 223 640.711 223 640.997 222.732 640.997 222.398L640.997 220.168C640.997 217.583 638.951 216.784 638.625 216.667L636.006 215.67 636.006 215.353C636.741 214.955 637.233 214.276 637.477 213.48 638.419 213.44 639.195 212.644 639.195 211.688 639.195 211.173 638.91 210.654 638.501 210.297L638.501 209.22C638.501 206.873 636.576 205 634.163 205Z" fill="#0F6FC6" fill-rule="evenodd"/><path d="M647.655 225.229C649.212 225.229 650.505 226.571 650.505 228.196L650.505 228.591 650.467 228.591C649.592 228.392 649.362 227.206 649.362 227.206 649.324 226.97 649.136 226.771 648.871 226.731 648.82 226.714 648.772 226.708 648.724 226.708 648.548 226.708 648.383 226.814 648.261 226.97 647.198 228.551 644.766 228.591 644.728 228.591L644.498 228.591 644.498 228.196C644.498 226.571 645.791 225.229 647.348 225.229ZM650.997 230.332C651.073 230.409 651.111 230.528 651.111 230.688 651.111 230.804 651.035 230.963 650.923 231.083L650.923 230.332ZM644.08 230.292 644.08 231.123C643.968 231.003 643.853 230.884 643.853 230.688 643.853 230.528 643.892 230.409 644.007 230.332 644.042 230.332 644.042 230.332 644.08 230.292ZM648.491 228.512C648.756 228.947 649.136 229.382 649.63 229.618L649.63 231.399C649.742 232.545 648.833 233.455 647.805 233.455L647.237 233.455C646.171 233.455 645.258 232.545 645.258 231.399L645.258 229.777C646.094 229.698 647.463 229.382 648.491 228.512ZM648.223 234.681 648.185 235.037 647.502 235.751 646.892 235.116 646.892 234.681ZM647.348 224.003C645.146 224.003 643.32 225.86 643.32 228.196L643.32 229.302C642.941 229.618 642.714 230.133 642.714 230.688 642.714 231.598 643.435 232.389 644.272 232.468 644.498 233.179 645.031 233.85 645.641 234.246L645.641 234.565 643.17 235.551C642.941 235.671 641.003 236.462 641.003 239.033L641.003 241.249C641.003 241.605 641.268 241.88 641.61 241.88L643.132 241.88C643.474 241.88 643.739 241.605 643.739 241.249 643.739 240.894 643.474 240.615 643.132 240.615L642.181 240.615 642.181 239.073C642.181 237.332 643.512 236.857 643.55 236.817L643.627 236.817 645.906 235.867 647.083 237.096C647.16 237.213 647.348 237.292 647.502 237.292 647.655 237.292 647.843 237.252 647.92 237.096L649.059 235.867 651.338 236.817 651.415 236.817C651.453 236.817 652.784 237.332 652.784 239.073L652.784 240.694 645.184 240.694C644.843 240.694 644.575 241.01 644.575 241.326 644.575 241.684 644.843 242 645.184 242L653.39 242C653.735 242 654 241.684 654 241.326L654 239.073C653.962 236.502 652.024 235.711 651.794 235.631L649.362 234.641 649.362 234.286C650.01 233.89 650.505 233.259 650.732 232.505 651.606 232.468 652.289 231.674 652.289 230.728 652.289 230.173 652.063 229.658 651.683 229.342L651.683 228.196C651.683 225.86 649.895 224.003 647.655 224.003Z" fill="#0F6FC6" fill-rule="evenodd"/><path d="M621.142 225.229C622.856 225.229 624.203 226.571 624.203 228.196L624.203 228.591 624.162 228.591C623.264 228.392 622.979 227.206 622.979 227.206 622.938 226.97 622.736 226.771 622.489 226.731 622.438 226.714 622.383 226.708 622.328 226.708 622.129 226.708 621.934 226.814 621.838 226.97 620.652 228.551 618.041 228.591 618 228.591L617.797 228.591 617.797 228.196C617.797 226.571 619.185 225.229 620.858 225.229ZM624.734 230.332C624.857 230.409 624.898 230.528 624.898 230.688 624.898 230.804 624.775 230.963 624.693 231.083L624.693 230.332ZM617.348 230.292 617.348 231.123C617.184 231.003 617.102 230.884 617.102 230.688 617.102 230.528 617.143 230.409 617.225 230.332 617.307 230.332 617.307 230.332 617.348 230.292ZM622.081 228.512C622.325 228.947 622.736 229.382 623.305 229.618L623.305 231.399C623.346 232.545 622.448 233.455 621.307 233.455L620.693 233.455C619.593 233.455 618.613 232.545 618.613 231.399L618.613 229.777C619.47 229.698 620.981 229.382 622.081 228.512ZM621.797 234.681 621.715 235.037 621.019 235.751 620.368 235.116 620.368 234.681ZM620.858 224.003C618.448 224.003 616.533 225.86 616.533 228.196L616.533 229.302C616.125 229.618 615.837 230.133 615.837 230.688 615.837 231.598 616.615 232.389 617.551 232.468 617.797 233.179 618.37 233.85 619.021 234.246L619.021 234.565 616.368 235.551C616.125 235.671 614.003 236.462 614.003 239.033L614.003 241.249C614.003 241.605 614.329 241.88 614.696 241.88L616.327 241.88C616.656 241.88 616.982 241.605 616.982 241.249 616.982 240.894 616.656 240.615 616.327 240.615L615.309 240.615 615.309 239.073C615.309 237.332 616.735 236.857 616.776 236.817L616.817 236.817 619.268 235.867 620.532 237.096C620.652 237.213 620.858 237.292 621.019 237.292 621.142 237.292 621.348 237.252 621.468 237.096L622.695 235.867 625.142 236.817 625.183 236.817C625.224 236.817 626.653 237.332 626.653 239.073L626.653 240.694 618.49 240.694C618.164 240.694 617.838 241.01 617.838 241.326 617.838 241.684 618.164 242 618.49 242L627.345 242C627.671 242 627.997 241.684 627.997 241.326L627.997 239.073C627.918 236.502 625.875 235.711 625.591 235.631L623.02 234.641 623.02 234.286C623.713 233.89 624.203 233.259 624.491 232.505 625.385 232.468 626.163 231.674 626.163 230.728 626.163 230.173 625.916 229.658 625.508 229.342L625.508 228.196C625.508 225.86 623.552 224.003 621.142 224.003Z" fill="#0F6FC6" fill-rule="evenodd"/></g></svg>