<svg width="41" height="41" xmlns="http://www.w3.org/2000/svg" xmlns:xlink="http://www.w3.org/1999/xlink" overflow="hidden"><g transform="translate(-98 -200)"><path d="M113.084 201.003C112.206 201.003 111.409 201.679 111.208 202.556L110.611 205.463C110.012 205.664 109.412 205.901 108.856 206.142L106.42 204.506C106.102 204.289 105.73 204.185 105.362 204.185 104.859 204.185 104.357 204.379 103.988 204.747L102.712 205.982C102.075 206.657 101.995 207.654 102.474 208.451L104.109 210.88C103.827 211.438 103.59 211.997 103.429 212.592L100.518 213.191C99.6399 213.389 99.0033 214.148 99.0033 215.102L99.0033 216.895C99.0033 217.812 99.6399 218.568 100.518 218.809L103.429 219.404C103.63 219.963 103.868 220.562 104.109 221.117L102.474 223.549C101.995 224.305 102.075 225.379 102.712 226.018L103.988 227.253C104.357 227.621 104.846 227.815 105.345 227.815 105.71 227.815 106.085 227.711 106.42 227.49L108.856 225.858C109.412 226.135 110.012 226.417 110.611 226.537L111.208 229.444C111.409 230.321 112.166 230.997 113.084 230.997L114.879 230.997C115.794 230.997 116.591 230.321 116.792 229.444L117.392 226.537C117.831 226.417 118.347 226.216 118.786 226.018 119.107 225.898 119.224 225.5 119.107 225.222 118.987 224.985 118.759 224.857 118.534 224.857 118.457 224.857 118.38 224.871 118.307 224.901 117.791 225.182 117.312 225.379 116.752 225.5 116.554 225.58 116.353 225.778 116.313 225.938L115.637 229.203C115.596 229.484 115.315 229.762 114.956 229.762L113.164 229.762C112.802 229.762 112.564 229.484 112.444 229.203L111.807 225.938C111.767 225.701 111.606 225.54 111.369 225.5 110.611 225.299 109.851 225.021 109.214 224.623 109.114 224.563 109.003 224.533 108.896 224.533 108.786 224.533 108.675 224.563 108.575 224.623L105.824 226.457C105.72 226.54 105.586 226.584 105.452 226.584 105.278 226.584 105.101 226.51 104.987 226.376L103.75 225.102C103.469 224.861 103.469 224.503 103.63 224.265L105.466 221.515C105.623 221.318 105.623 221.077 105.466 220.88 105.067 220.2 104.786 219.484 104.588 218.728 104.548 218.528 104.347 218.33 104.149 218.29L100.876 217.651C100.598 217.574 100.36 217.293 100.36 216.935L100.36 215.142C100.36 214.824 100.598 214.546 100.876 214.466L104.149 213.827C104.387 213.75 104.548 213.63 104.588 213.352 104.786 212.633 105.067 211.877 105.466 211.241 105.583 211.04 105.583 210.762 105.466 210.562L103.63 207.855C103.429 207.574 103.469 207.176 103.75 206.979L104.987 205.741C105.117 205.61 105.285 205.55 105.449 205.55 105.583 205.55 105.717 205.59 105.824 205.664L108.575 207.494C108.675 207.574 108.786 207.614 108.896 207.614 109.003 207.614 109.114 207.574 109.214 207.494 109.931 207.096 110.611 206.778 111.369 206.58 111.566 206.54 111.767 206.34 111.807 206.142L112.444 202.914C112.524 202.596 112.802 202.355 113.164 202.355L114.956 202.355C115.315 202.355 115.556 202.596 115.637 202.914L116.313 206.142C116.353 206.38 116.474 206.54 116.752 206.58 117.469 206.778 118.229 207.096 118.866 207.494 118.966 207.534 119.087 207.554 119.204 207.554 119.325 207.554 119.446 207.534 119.546 207.494L122.256 205.664C122.377 205.577 122.521 205.537 122.662 205.537 122.843 205.537 123.02 205.607 123.134 205.741L124.37 206.979C124.611 207.256 124.611 207.574 124.451 207.855L122.615 210.562C122.457 210.762 122.457 211 122.615 211.241 123.013 211.917 123.335 212.633 123.533 213.352 123.573 213.549 123.774 213.75 123.972 213.827L127.204 214.466C127.523 214.506 127.76 214.824 127.76 215.142L127.76 216.935C127.76 217.293 127.523 217.534 127.204 217.651L123.972 218.29C123.734 218.33 123.573 218.487 123.533 218.728 123.375 219.287 123.174 219.842 122.936 220.321 122.776 220.639 122.936 220.96 123.214 221.117 123.302 221.161 123.389 221.181 123.472 221.181 123.697 221.181 123.894 221.043 124.012 220.839 124.213 220.401 124.41 219.883 124.571 219.404L127.442 218.809C128.36 218.608 128.997 217.852 128.997 216.895L128.997 215.102C128.997 214.188 128.36 213.429 127.442 213.191L124.571 212.592C124.37 211.997 124.132 211.438 123.851 210.88L125.526 208.451C126.005 207.695 125.928 206.617 125.248 205.982L124.012 204.747C123.643 204.379 123.157 204.185 122.655 204.185 122.29 204.185 121.915 204.289 121.58 204.506L119.144 206.142C118.588 205.861 117.988 205.583 117.392 205.463L116.792 202.556C116.591 201.679 115.834 201.003 114.879 201.003Z" fill="#0F6FC6" fill-rule="evenodd"/><path d="M114.118 209C112.322 209 110.562 209.764 109.242 211.074 109 211.326 109 211.749 109.242 211.962 109.38 212.111 109.551 212.182 109.712 212.182 109.87 212.182 110.021 212.111 110.122 211.962 111.16 210.861 112.6 210.272 114.038 210.272 117.198 210.272 119.757 212.978 119.757 216.317 119.757 217.247 119.559 218.221 119.156 219.066 118.958 219.446 119.119 219.787 119.398 219.954 119.519 219.996 119.596 219.996 119.717 219.996 119.919 219.996 120.157 219.911 120.238 219.659 120.758 218.643 120.997 217.46 120.997 216.317 120.997 212.3 117.917 209 114.118 209Z" fill="#0F6FC6" fill-rule="evenodd"/><path d="M107.963 213.003C107.714 213.003 107.475 213.168 107.354 213.458 107.118 214.169 107.003 215.001 107.003 215.792 107.003 219.749 110.003 223 113.71 223 115.112 223 116.477 222.5 117.646 221.625 117.957 221.415 117.997 220.999 117.804 220.75 117.686 220.551 117.499 220.456 117.319 220.456 117.198 220.456 117.077 220.498 116.985 220.582 116.048 221.335 114.879 221.751 113.71 221.751 110.628 221.751 108.133 219.085 108.133 215.792 108.133 215.127 108.251 214.501 108.444 213.875 108.641 213.5 108.444 213.126 108.172 213.042 108.104 213.014 108.032 213.003 107.963 213.003Z" fill="#0F6FC6" fill-rule="evenodd"/><path d="M127.328 220C126.657 220 126.063 220.515 125.907 221.185L125.549 222.964C125.273 223.084 124.918 223.203 124.602 223.359L123.139 222.373C122.896 222.211 122.624 222.134 122.359 222.134 121.977 222.134 121.602 222.29 121.32 222.569L120.45 223.399C119.978 223.914 119.899 224.704 120.254 225.258L121.243 226.719C121.044 227.114 120.848 227.549 120.768 228.023 120.649 228.339 120.848 228.657 121.203 228.734 121.273 228.76 121.339 228.77 121.402 228.77 121.661 228.77 121.857 228.588 121.954 228.302 122.073 227.827 122.309 227.353 122.468 226.958 122.584 226.758 122.584 226.523 122.468 226.324L121.32 224.544C121.243 224.468 121.243 224.349 121.359 224.269L122.189 223.399C122.259 223.353 122.315 223.333 122.375 223.333 122.415 223.333 122.458 223.343 122.508 223.359L124.284 224.544C124.383 224.624 124.493 224.664 124.602 224.664 124.709 224.664 124.818 224.624 124.918 224.544 125.353 224.309 125.788 224.11 126.262 223.993 126.458 223.954 126.657 223.754 126.697 223.559L127.132 221.424C127.132 221.344 127.248 221.225 127.368 221.225L128.513 221.225C128.632 221.225 128.712 221.344 128.752 221.424L129.227 223.559C129.266 223.794 129.383 223.954 129.661 223.993 130.136 224.149 130.568 224.349 131.002 224.544 131.102 224.604 131.212 224.634 131.321 224.634 131.427 224.634 131.537 224.604 131.637 224.544L133.416 223.359C133.449 223.343 133.485 223.333 133.529 223.333 133.585 223.333 133.645 223.353 133.691 223.399L134.561 224.269C134.641 224.349 134.641 224.468 134.601 224.544L133.416 226.324C133.256 226.523 133.256 226.758 133.416 226.958 133.651 227.432 133.851 227.867 133.967 228.302 134.007 228.498 134.206 228.697 134.402 228.734L136.536 229.208C136.616 229.208 136.735 229.288 136.735 229.447L136.735 230.593C136.735 230.672 136.616 230.792 136.536 230.832L134.402 231.263C134.166 231.303 134.007 231.462 133.967 231.698 133.811 232.212 133.612 232.647 133.416 233.042 133.296 233.241 133.296 233.477 133.416 233.676L134.601 235.456C134.641 235.572 134.641 235.651 134.561 235.771L133.691 236.601C133.648 236.664 133.592 236.694 133.539 236.694 133.495 236.694 133.449 236.674 133.416 236.641L131.637 235.456C131.537 235.396 131.427 235.366 131.321 235.366 131.212 235.366 131.102 235.396 131.002 235.456 130.531 235.731 130.096 235.927 129.661 236.007 129.462 236.046 129.266 236.246 129.227 236.441L128.752 238.576C128.752 238.695 128.672 238.775 128.513 238.775L127.368 238.775C127.288 238.775 127.172 238.695 127.132 238.576L126.697 236.441C126.657 236.206 126.498 236.046 126.262 236.007 125.748 235.851 125.313 235.651 124.918 235.456 124.818 235.416 124.709 235.396 124.602 235.396 124.493 235.396 124.383 235.416 124.284 235.456L122.508 236.641C122.455 236.674 122.408 236.694 122.362 236.694 122.309 236.694 122.256 236.664 122.189 236.601L121.359 235.771C121.243 235.651 121.243 235.572 121.32 235.456L122.468 233.676C122.624 233.477 122.624 233.241 122.468 233.042 122.229 232.607 122.033 232.173 121.954 231.698 121.874 231.502 121.678 231.303 121.479 231.263L119.384 230.832C119.265 230.832 119.185 230.712 119.185 230.593L119.185 229.447C119.185 229.328 119.265 229.248 119.384 229.208L119.504 229.132C119.859 229.092 120.055 228.734 120.018 228.458 119.982 228.133 119.68 227.94 119.417 227.94 119.391 227.94 119.368 227.94 119.344 227.944L119.185 228.023C118.475 228.143 118 228.734 118 229.447L118 230.593C118 231.263 118.475 231.857 119.185 232.017L120.964 232.372C121.044 232.647 121.203 233.002 121.359 233.281L120.373 234.782C119.978 235.376 120.055 236.126 120.569 236.601L121.399 237.431C121.691 237.723 122.073 237.862 122.441 237.862 122.724 237.862 122.996 237.783 123.218 237.627L124.719 236.641C124.998 236.797 125.313 236.956 125.668 237.036L125.983 238.815C126.143 239.525 126.737 240 127.447 240L128.553 240C129.266 240 129.857 239.525 130.017 238.815L130.332 237.036C130.647 236.956 131.002 236.797 131.281 236.641L132.782 237.627C133.034 237.796 133.306 237.879 133.575 237.879 133.944 237.879 134.305 237.726 134.601 237.431L135.431 236.601C135.945 236.126 135.985 235.336 135.627 234.782L134.641 233.281C134.797 233.002 134.956 232.687 135.036 232.372L136.815 232.017C137.525 231.857 138 231.263 138 230.593L138 229.447C137.92 228.734 137.406 228.143 136.735 228.023L134.956 227.668C134.837 227.353 134.68 227.037 134.561 226.719L135.55 225.258C135.945 224.664 135.826 223.914 135.351 223.399L134.481 222.569C134.206 222.294 133.821 222.151 133.439 222.151 133.167 222.151 132.895 222.224 132.666 222.373L131.202 223.359C130.886 223.203 130.568 223.084 130.252 222.964L129.897 221.185C129.738 220.515 129.147 220 128.473 220Z" fill="#0F6FC6" fill-rule="evenodd"/><path d="M127.502 227C125.548 227 124.003 228.327 124.003 229.999 124.003 231.638 125.548 232.997 127.502 232.997 128.274 232.997 129.005 232.789 129.616 232.406 129.9 232.23 129.941 231.881 129.739 231.638 129.623 231.518 129.442 231.457 129.261 231.457 129.124 231.457 128.991 231.492 128.885 231.568 128.479 231.814 127.99 231.952 127.502 231.952 126.282 231.952 125.264 231.079 125.264 230.034 125.305 228.918 126.323 228.083 127.543 228.083 128.762 228.083 129.78 228.953 129.78 229.999 129.78 230.315 130.064 230.523 130.388 230.523 130.713 230.523 131 230.245 131 229.999 131 228.327 129.411 227 127.502 227Z" fill="#0F6FC6" fill-rule="evenodd"/><path d="M113.977 213.364C115.432 213.364 116.674 214.554 116.674 216 116.674 217.446 115.432 218.679 113.977 218.679 112.482 218.679 111.326 217.446 111.326 216 111.326 214.511 112.525 213.364 113.977 213.364ZM113.977 212.004C111.796 212.004 110 213.832 110 216 110 218.168 111.796 219.996 113.977 219.996 116.204 219.996 118 218.168 118 216 118 213.832 116.204 212.004 113.977 212.004Z" fill="#0F6FC6" fill-rule="evenodd"/></g></svg>