<svg width="29" height="35" xmlns="http://www.w3.org/2000/svg" xmlns:xlink="http://www.w3.org/1999/xlink" overflow="hidden"><g transform="translate(-90 -106)"><path d="M95.2774 125.003C95.1747 125.003 95.0642 125.024 94.9615 125.068L92.5647 126.121C92 126.33 92.1895 126.997 92.845 126.997 92.9398 126.997 93.0819 126.997 93.1293 126.962L95.5262 125.909C95.9487 125.77 95.996 125.454 95.8539 125.242 95.7275 125.097 95.5104 125.003 95.2774 125.003Z" fill="#0F6FC6" fill-rule="evenodd"/><path d="M114.589 125C114.418 125 114.237 125.097 114.142 125.242 114 125.452 114.107 125.768 114.317 125.91 116.15 126.965 116.115 127 116.399 127 116.822 127 116.997 126.332 116.609 126.12L114.811 125.065C114.743 125.021 114.669 125 114.589 125Z" fill="#0F6FC6" fill-rule="evenodd"/><path d="M102.376 118.083C102.9 118.083 103.31 118.53 103.31 119.012L103.31 119.944 102.229 119.944C101.705 119.944 101.295 119.534 101.295 119.012 101.295 118.53 101.705 118.083 102.229 118.083ZM108.201 118.083C108.721 118.083 109.132 118.53 109.132 119.012 109.132 119.534 108.721 119.944 108.201 119.944L107.154 119.944 107.154 119.012C107.154 118.53 107.564 118.083 108.088 118.083ZM108.683 130.673 108.683 132.797 101.743 132.797 101.743 130.673ZM108.721 133.802 108.721 135.144 108.683 135.144C108.683 135.554 108.348 135.889 107.937 135.889L102.527 135.889C102.078 135.889 101.781 135.554 101.781 135.144L101.781 133.802ZM102.191 117C101.107 117 100.251 117.895 100.251 118.974 100.251 120.057 101.107 120.949 102.191 120.949L103.273 120.949 103.273 124.972C103.273 125.273 103.495 125.495 103.796 125.495 104.056 125.495 104.279 125.273 104.279 124.972L104.279 120.949 106.11 120.949 106.11 129.631 104.279 129.631 104.279 126.984C104.279 126.724 104.056 126.465 103.796 126.465 103.495 126.465 103.273 126.724 103.273 126.984L103.273 129.703 101.743 129.703C101.668 128.251 101.069 126.909 99.9498 125.905 99.1285 125.16 98.4577 124.228 98.047 123.223 97.9561 123.039 97.7367 122.904 97.5172 122.904 97.4702 122.904 97.4232 122.91 97.3762 122.923 97.1505 123.036 97.0031 123.37 97.1129 123.596 97.5611 124.75 98.3072 125.792 99.2414 126.649 100.138 127.507 100.696 128.661 100.696 129.891L100.696 135.219C100.696 136.073 101.257 136.746 102.041 136.968 102.041 137.378 102.154 137.788 102.339 138.198 102.448 138.392 102.621 138.501 102.793 138.501 102.856 138.501 102.915 138.489 102.975 138.457 103.235 138.31 103.348 138.01 103.235 137.788 103.122 137.566 103.05 137.265 103.05 137.006L107.229 137.006C107.166 138.148 106.16 138.98 105.072 138.98 104.846 138.98 104.618 138.946 104.392 138.867 104.323 138.842 104.254 138.83 104.191 138.83 103.981 138.83 103.806 138.958 103.721 139.13 103.646 139.427 103.796 139.687 104.019 139.8 104.386 139.934 104.752 139.997 105.113 139.997 106.737 139.997 108.169 138.714 108.201 137.006 109.022 136.818 109.58 136.111 109.58 135.291L109.58 130.003C109.58 128.883 109.991 127.841 110.699 127.022 111 126.724 110.962 126.39 110.774 126.202 110.687 126.114 110.561 126.067 110.439 126.067 110.301 126.067 110.163 126.124 110.066 126.239 109.245 127.172 108.721 128.401 108.683 129.703L107.154 129.703 107.154 120.949 108.201 120.949C109.282 120.949 110.179 120.057 110.179 118.974 110.179 117.895 109.282 117 108.201 117L108.088 117C107.006 117 106.11 117.895 106.11 118.974L106.11 119.907 104.279 119.907 104.279 118.974C104.279 117.895 103.423 117 102.339 117Z" fill="#0F6FC6" fill-rule="evenodd"/><path d="M105.082 111.003C100.454 111.003 96 114.436 96 119.588 96 120.067 96.0773 120.508 96.116 120.95 96.1515 121.184 96.3448 121.357 96.6124 121.357 96.6381 121.357 96.6639 121.357 96.6897 121.354 96.9604 121.317 97.1506 121.061 97.1119 120.802 97.0732 120.397 96.9991 120.03 96.9991 119.588 96.9991 115.371 100.606 111.982 104.956 111.982 105.002 111.982 105.047 111.982 105.095 111.982 109.353 112.019 112.846 115.436 112.885 119.517L112.885 119.588C112.885 121.243 112.308 122.861 111.312 124.185 111.119 124.441 111.157 124.697 111.389 124.883 111.499 124.96 111.612 124.997 111.718 124.997 111.866 124.997 112.005 124.923 112.118 124.772 113.307 123.265 113.958 121.465 113.958 119.588 113.997 119.588 113.997 119.554 113.997 119.517 113.958 117.273 113.036 115.143 111.351 113.525 109.53 111.781 107.287 111.003 105.082 111.003Z" fill="#0F6FC6" fill-rule="evenodd"/><path d="M104.481 106C104.224 106 104 106.208 104 106.483L104 108.517C104 108.792 104.224 108.997 104.481 108.997 104.776 108.997 105 108.792 105 108.517L105 106.483C104.963 106.174 104.776 106 104.481 106Z" fill="#0F6FC6" fill-rule="evenodd"/><path d="M98.4899 108C98.4168 108 98.3383 108.022 98.2571 108.07 98.0649 108.224 98 108.527 98.0974 108.792L99.0636 110.732C99.161 110.885 99.3207 111 99.4506 111 99.8051 111 99.9973 110.543 99.8376 110.24L98.8714 108.262C98.7821 108.105 98.6468 108 98.4899 108Z" fill="#0F6FC6" fill-rule="evenodd"/><path d="M93.5742 113C93.3961 113 93.2119 113.094 93.1105 113.238 93 113.449 93.0737 113.762 93.2948 113.903L95.1955 114.95C95.263 114.982 95.3398 114.997 95.4197 114.997 95.5977 114.997 95.7758 114.921 95.8526 114.774 96 114.496 95.9263 114.252 95.6714 114.111L93.8045 113.065C93.7369 113.021 93.6571 113 93.5742 113Z" fill="#0F6FC6" fill-rule="evenodd"/><path d="M91.4805 119.003C91.2059 119.003 91.0029 119.216 91.0029 119.5 91.0029 119.751 91.2059 120 91.4805 120L93.5224 120C93.7598 120 94 119.751 94 119.5 94 119.216 93.7598 119.003 93.5224 119.003Z" fill="#0F6FC6" fill-rule="evenodd"/><path d="M115.645 120C115.274 120 115 120.213 115 120.5 115 120.749 115.274 120.997 115.645 120.997L118.402 120.997C118.722 120.997 119 120.749 119 120.5 118.954 120.213 118.68 120 118.402 120Z" fill="#0F6FC6" fill-rule="evenodd"/><path d="M116.439 113.003C116.359 113.003 116.273 113.023 116.193 113.064L114.331 114.105C114.077 114.241 114.003 114.485 114.147 114.762 114.224 114.904 114.383 114.997 114.561 114.997 114.641 114.997 114.727 114.977 114.807 114.933L116.706 113.895C116.923 113.724 116.997 113.445 116.887 113.238 116.788 113.096 116.62 113.003 116.439 113.003Z" fill="#0F6FC6" fill-rule="evenodd"/><path d="M111.495 108C111.346 108 111.194 108.097 111.112 108.271L110.162 110.229C110.003 110.577 110.191 111 110.508 111 110.668 111 110.795 110.884 110.888 110.768L111.84 108.771C111.997 108.542 111.902 108.232 111.713 108.081 111.646 108.026 111.572 108 111.495 108Z" fill="#0F6FC6" fill-rule="evenodd"/></g></svg>