<svg width="41" height="39" xmlns="http://www.w3.org/2000/svg" xmlns:xlink="http://www.w3.org/1999/xlink" overflow="hidden"><g transform="translate(-298 -57)"><path d="M318.019 77C317.677 77 317.411 77.3236 317.411 77.6843L317.411 83.7861 312.384 86.8336C312.118 87.0359 312.003 87.3966 312.154 87.7168 312.269 87.9191 312.499 88 312.688 88 312.764 88 312.88 87.9595 312.953 87.9191L317.981 84.8278 322.97 87.9191C323.047 87.9595 323.159 88 323.236 88 323.427 88 323.693 87.9191 323.77 87.7168 323.997 87.3561 323.92 86.9954 323.616 86.7965L318.63 83.7456 318.63 77.6843C318.63 77.3236 318.361 77 318.019 77Z" fill="#0F6FC6" fill-rule="evenodd"/><path d="M318.163 59.2339C319.882 59.2339 321.233 60.5881 321.233 62.22L321.233 62.6179 321.191 62.6179C320.291 62.4206 320.006 61.2268 320.006 61.2268 319.964 60.9861 319.758 60.7888 319.514 60.7085 319.483 60.7018 319.449 60.6985 319.418 60.6985 319.198 60.6985 318.964 60.8122 318.858 60.9861 317.672 62.5777 315.053 62.5777 315.011 62.5777 314.97 62.5777 314.846 62.5777 314.809 62.6179L314.809 62.22C314.809 60.5881 316.197 59.2339 317.878 59.2339ZM321.766 64.3701C321.845 64.4503 321.927 64.5306 321.927 64.6877 321.927 64.8482 321.807 65.0087 321.724 65.0856L321.724 64.3701ZM314.358 64.2898 314.358 65.1659C314.193 65.0489 314.069 64.8884 314.069 64.6877 314.069 64.5707 314.152 64.4503 314.234 64.3701 314.276 64.3701 314.276 64.3701 314.358 64.2898ZM319.105 62.5008C319.349 62.9389 319.758 63.4137 320.332 63.6545L320.332 65.4468C320.415 66.6004 319.473 67.4765 318.328 67.4765L317.713 67.4765C316.606 67.4765 315.627 66.6004 315.627 65.4468L315.627 63.8116C316.486 63.6946 317.957 63.4137 319.105 62.5008ZM318.775 68.7505 318.775 69.0682 318.737 69.0682 318.04 69.8239 317.345 69.1886 317.345 68.7505ZM317.878 58C315.462 58 313.499 59.8726 313.499 62.22L313.499 63.2967C313.09 63.6545 312.842 64.1728 312.842 64.6877 312.842 65.6441 313.619 66.4399 314.52 66.48 314.809 67.2357 315.338 67.8744 316.036 68.2723L316.036 68.6301 313.375 69.6266C313.09 69.7436 311 70.5428 311 73.131L311 75.358C311 75.7158 311.33 75.9967 311.657 75.9967L313.293 75.9967C313.66 75.9967 313.987 75.7158 313.987 75.358 313.987 75.0002 313.66 74.7226 313.293 74.7226L312.268 74.7226 312.268 73.0507C312.268 71.3387 313.702 70.8204 313.784 70.7802L313.825 70.7802 316.28 69.8239 317.548 71.0578C317.672 71.1782 317.878 71.2584 317.998 71.2584 318.163 71.2584 318.366 71.2183 318.49 71.0578L319.717 69.8239 322.175 70.7802 322.216 70.7802C322.257 70.7802 323.687 71.3387 323.687 73.0507L323.687 74.7226 315.503 74.7226C315.135 74.7226 314.846 75.0002 314.846 75.358 314.846 75.7158 315.135 75.9967 315.503 75.9967L324.343 75.9967C324.364 76 324.385 76 324.405 76 324.711 76 324.997 75.7325 324.997 75.3981L324.997 73.1677C324.997 70.5829 322.951 69.7838 322.625 69.6667L320.006 68.6703 320.006 68.3526C320.741 67.9547 321.233 67.2759 321.477 66.48 322.419 66.4399 323.195 65.6441 323.195 64.6877 323.195 64.1728 322.91 63.6545 322.501 63.2967L322.501 62.22C322.501 59.8726 320.576 58 318.163 58Z" fill="#0F6FC6" fill-rule="evenodd"/><path d="M331.655 78.2292C333.212 78.2292 334.505 79.5714 334.505 81.196L334.505 81.5914 334.467 81.5914C333.592 81.392 333.362 80.206 333.362 80.206 333.324 79.9701 333.136 79.7708 332.871 79.7309 332.82 79.7143 332.772 79.7076 332.724 79.7076 332.548 79.7076 332.383 79.8139 332.261 79.9701 331.198 81.5515 328.766 81.5914 328.728 81.5914L328.498 81.5914 328.498 81.196C328.498 79.5714 329.791 78.2292 331.348 78.2292ZM334.997 83.3322C335.073 83.4086 335.111 83.5282 335.111 83.6877 335.111 83.804 335.035 83.9635 334.923 84.0831L334.923 83.3322ZM328.08 83.2924 328.08 84.1229C327.968 84.0033 327.853 83.8837 327.853 83.6877 327.853 83.5282 327.892 83.4086 328.007 83.3322 328.042 83.3322 328.042 83.3322 328.08 83.2924ZM332.491 81.5116C332.756 81.9468 333.136 82.3821 333.63 82.6179L333.63 84.3987C333.742 85.5449 332.833 86.4551 331.805 86.4551L331.237 86.4551C330.171 86.4551 329.258 85.5449 329.258 84.3987L329.258 82.7774C330.094 82.6977 331.463 82.3821 332.491 81.5116ZM332.223 87.6811 332.185 88.0365 331.502 88.7508 330.892 88.1163 330.892 87.6811ZM331.348 77.0033C329.146 77.0033 327.32 78.8605 327.32 81.196L327.32 82.3023C326.941 82.6179 326.714 83.1329 326.714 83.6877 326.714 84.598 327.435 85.3887 328.272 85.4684 328.498 86.1794 329.031 86.8505 329.641 87.2458L329.641 87.5648 327.17 88.5515C326.941 88.6711 325.003 89.4618 325.003 92.0332L325.003 94.2492C325.003 94.6047 325.268 94.8804 325.61 94.8804L327.132 94.8804C327.474 94.8804 327.739 94.6047 327.739 94.2492 327.739 93.8937 327.474 93.6146 327.132 93.6146L326.181 93.6146 326.181 92.0731C326.181 90.3322 327.512 89.8571 327.55 89.8173L327.627 89.8173 329.906 88.8671 331.083 90.0963C331.16 90.2126 331.348 90.2924 331.502 90.2924 331.655 90.2924 331.843 90.2525 331.92 90.0963L333.059 88.8671 335.338 89.8173 335.415 89.8173C335.453 89.8173 336.784 90.3322 336.784 92.0731L336.784 93.6944 329.184 93.6944C328.843 93.6944 328.575 94.01 328.575 94.3256 328.575 94.6844 328.843 95 329.184 95L337.39 95C337.735 95 338 94.6844 338 94.3256L338 92.0731C337.962 89.5017 336.024 88.711 335.794 88.6312L333.362 87.6412 333.362 87.2857C334.01 86.8904 334.505 86.2591 334.732 85.505 335.606 85.4684 336.289 84.6744 336.289 83.7276 336.289 83.1728 336.063 82.6578 335.683 82.3422L335.683 81.196C335.683 78.8605 333.895 77.0033 331.655 77.0033Z" fill="#0F6FC6" fill-rule="evenodd"/><path d="M305.142 78.2292C306.856 78.2292 308.203 79.5714 308.203 81.196L308.203 81.5914 308.162 81.5914C307.264 81.392 306.979 80.206 306.979 80.206 306.938 79.9701 306.736 79.7708 306.489 79.7309 306.438 79.7143 306.383 79.7076 306.328 79.7076 306.129 79.7076 305.934 79.8139 305.838 79.9701 304.652 81.5515 302.041 81.5914 302 81.5914L301.797 81.5914 301.797 81.196C301.797 79.5714 303.185 78.2292 304.858 78.2292ZM308.734 83.3322C308.857 83.4086 308.898 83.5282 308.898 83.6877 308.898 83.804 308.775 83.9635 308.693 84.0831L308.693 83.3322ZM301.348 83.2924 301.348 84.1229C301.184 84.0033 301.102 83.8837 301.102 83.6877 301.102 83.5282 301.143 83.4086 301.225 83.3322 301.307 83.3322 301.307 83.3322 301.348 83.2924ZM306.081 81.5116C306.325 81.9468 306.736 82.3821 307.305 82.6179L307.305 84.3987C307.346 85.5449 306.448 86.4551 305.307 86.4551L304.693 86.4551C303.593 86.4551 302.613 85.5449 302.613 84.3987L302.613 82.7774C303.47 82.6977 304.981 82.3821 306.081 81.5116ZM305.797 87.6811 305.715 88.0365 305.019 88.7508 304.368 88.1163 304.368 87.6811ZM304.858 77.0033C302.448 77.0033 300.533 78.8605 300.533 81.196L300.533 82.3023C300.125 82.6179 299.837 83.1329 299.837 83.6877 299.837 84.598 300.615 85.3887 301.551 85.4684 301.797 86.1794 302.37 86.8505 303.021 87.2458L303.021 87.5648 300.368 88.5515C300.125 88.6711 298.003 89.4618 298.003 92.0332L298.003 94.2492C298.003 94.6047 298.329 94.8804 298.696 94.8804L300.327 94.8804C300.656 94.8804 300.982 94.6047 300.982 94.2492 300.982 93.8937 300.656 93.6146 300.327 93.6146L299.309 93.6146 299.309 92.0731C299.309 90.3322 300.735 89.8571 300.776 89.8173L300.817 89.8173 303.268 88.8671 304.532 90.0963C304.652 90.2126 304.858 90.2924 305.019 90.2924 305.142 90.2924 305.348 90.2525 305.468 90.0963L306.695 88.8671 309.142 89.8173 309.183 89.8173C309.224 89.8173 310.653 90.3322 310.653 92.0731L310.653 93.6944 302.49 93.6944C302.164 93.6944 301.838 94.01 301.838 94.3256 301.838 94.6844 302.164 95 302.49 95L311.345 95C311.671 95 311.997 94.6844 311.997 94.3256L311.997 92.0731C311.918 89.5017 309.875 88.711 309.591 88.6312L307.02 87.6412 307.02 87.2857C307.713 86.8904 308.203 86.2591 308.491 85.505 309.385 85.4684 310.163 84.6744 310.163 83.7276 310.163 83.1728 309.916 82.6578 309.508 82.3422L309.508 81.196C309.508 78.8605 307.552 77.0033 305.142 77.0033Z" fill="#0F6FC6" fill-rule="evenodd"/></g></svg>