<svg width="29" height="36" xmlns="http://www.w3.org/2000/svg" xmlns:xlink="http://www.w3.org/1999/xlink" overflow="hidden"><g transform="translate(-367 -205)"><path d="M381.457 206.086 394.931 208.703 394.931 227.748 381.457 238.82 368.028 227.748 368.028 208.703 381.457 206.086ZM381.378 205 367.414 207.739C367.166 207.78 367 207.979 367 208.223L367 227.951C367 228.11 367.041 228.272 367.207 228.354L381.171 239.909C381.274 239.97 381.388 240 381.498 240 381.612 240 381.726 239.97 381.829 239.909L395.793 228.354C395.914 228.272 395.997 228.11 395.997 227.951L395.997 208.223C395.997 207.979 395.793 207.78 395.545 207.739L381.581 205Z" fill="#0F6FC6" fill-rule="evenodd"/><path d="M381.385 208.003 370.384 210.265C370.116 210.304 370 210.501 370 210.734L370 227.125C370 227.282 370.039 227.436 370.194 227.515L381.192 236.879C381.288 236.957 381.395 236.997 381.498 236.997 381.605 236.997 381.712 236.957 381.808 236.879L392.806 227.515C392.922 227.436 392.997 227.282 392.997 227.125L392.997 223.106C392.997 222.792 392.767 222.598 392.535 222.598 392.228 222.598 392.038 222.831 392.038 223.106L392.038 226.889 381.537 235.866 370.962 226.889 370.962 211.124 381.46 208.98 391.999 211.124 391.999 220.609C391.96 220.881 392.189 221.153 392.499 221.153 392.767 221.153 392.958 220.881 392.958 220.645L392.958 210.734C392.958 210.501 392.806 210.304 392.574 210.265L381.576 208.003Z" fill="#0F6FC6" fill-rule="evenodd"/><path d="M381.498 213.139C385.052 213.139 387.972 216.254 387.972 220.044 387.972 223.831 385.052 226.946 381.498 226.946 377.948 226.946 375.067 223.831 375.067 220.044 375.067 216.254 377.948 213.139 381.498 213.139ZM381.498 212C377.355 212 374 215.578 374 220.002 374 224.422 377.355 228 381.498 228 385.645 228 389 224.422 389 220.002 389 215.578 385.645 212 381.498 212Z" fill="#0F6FC6" fill-rule="evenodd"/><path d="M381.5 214C381.244 214 381.025 214.244 381.025 214.526L381.025 215.659C379.92 215.778 379.003 216.83 379.003 218.081 379.003 219.455 380.031 220.504 381.207 220.504L381.722 220.504C382.42 220.504 383.006 221.152 383.006 221.919 383.006 222.685 382.42 223.333 381.722 223.333L380.988 223.333C380.435 223.333 379.957 222.848 379.957 222.241 379.957 221.919 379.738 221.718 379.515 221.718 379.259 221.718 379.04 221.959 379.04 222.241 379.04 223.455 379.92 224.382 381.025 224.382L381.059 224.382 381.059 225.515C381.059 225.796 381.281 226 381.537 226 381.759 226 381.978 225.756 381.978 225.515L381.978 224.341C383.08 224.263 384 223.17 384 221.919 384 220.545 383.006 219.496 381.796 219.496L381.281 219.496C380.62 219.496 380.031 218.848 380.031 218.081 380.031 217.315 380.62 216.667 381.281 216.667L382.015 216.667C382.602 216.667 383.043 217.193 383.043 217.8L383.043 218.363C383.043 218.607 383.265 218.848 383.522 218.848 383.778 218.848 383.963 218.607 383.963 218.363L383.963 217.8C383.963 216.585 383.08 215.618 381.978 215.618L381.941 215.618 381.941 214.526C381.941 214.204 381.722 214 381.5 214Z" fill="#0F6FC6" fill-rule="evenodd"/></g></svg>