<svg width="39" height="30" xmlns="http://www.w3.org/2000/svg" xmlns:xlink="http://www.w3.org/1999/xlink" overflow="hidden"><g transform="translate(-751 -108)"><path d="M788.48 119.003C788.221 119.003 787.925 119.268 787.925 119.572L787.925 135.856 768.561 135.856C768.262 135.856 768.003 136.083 768.003 136.428 768.003 136.732 768.224 136.997 768.561 136.997L788.442 136.997C788.704 136.997 789 136.732 789 136.428L789 119.572C789 119.268 788.776 119.003 788.48 119.003Z" fill="#0F6FC6" fill-rule="evenodd"/><path d="M755.258 109.003C753.463 109.003 752 110.46 752 112.215L752 133.635C752 135.427 753.5 136.997 755.372 136.997L766.194 136.997C766.493 136.997 766.757 136.736 766.757 136.438 766.757 136.137 766.531 135.876 766.194 135.876L755.372 135.876C754.136 135.876 753.126 134.831 753.126 133.635L753.126 133.484 753.126 133.371C753.274 132.325 754.173 131.503 755.258 131.503L756.271 131.503C756.57 131.503 756.831 131.28 756.831 130.944 756.831 130.68 756.608 130.382 756.271 130.382 756.199 130.392 756.117 130.395 756.02 130.395 755.875 130.395 755.702 130.388 755.51 130.388 754.846 130.388 753.95 130.47 753.088 131.205L753.088 112.18C753.088 111.019 754.06 110.011 755.258 110.011L759.753 110.011 759.753 130.382 758.441 130.382C758.143 130.382 757.882 130.643 757.882 130.944 757.882 131.242 758.105 131.503 758.441 131.503L760.24 131.503C760.539 131.503 760.8 131.28 760.8 130.944L760.8 112.739 787.877 112.739 787.877 117.674C787.877 117.972 788.1 118.233 788.437 118.233 788.701 118.233 789 118.01 789 117.674L789 112.215C789 111.954 788.774 111.694 788.475 111.694L760.876 111.694 760.876 109.562C760.876 109.264 760.615 109.003 760.316 109.003Z" fill="#0F6FC6" fill-rule="evenodd"/><path d="M779.09 116.117 779.09 120.105 771.402 120.105 771.402 116.117ZM770.322 124.502 770.322 131.883 767.127 131.883C764.899 131.883 763.117 130.092 763.117 127.895L763.117 124.502ZM783.883 116.045 783.883 131.883 771.402 131.883 771.402 121.188 779.649 121.188C779.945 121.188 780.204 120.962 780.204 120.628L780.204 116.045ZM762.559 115C762.3 115 762 115.225 762 115.56L762 127.895C762 130.728 764.268 133 767.127 133L784.441 133C784.7 133 784.997 132.775 784.997 132.44L784.997 115.56C784.959 115.225 784.7 115 784.441 115L768.316 115C768.057 115 767.76 115.225 767.76 115.56 767.76 115.82 767.982 116.117 768.316 116.117L770.322 116.117 770.322 123.423 763.117 123.423 763.117 116.117 766.125 116.117C766.422 116.117 766.684 115.858 766.684 115.56 766.684 115.263 766.459 115 766.125 115Z" fill="#0F6FC6" fill-rule="evenodd"/></g></svg>