<svg width="35" height="31" xmlns="http://www.w3.org/2000/svg" xmlns:xlink="http://www.w3.org/1999/xlink" overflow="hidden"><g transform="translate(-452 -105)"><path d="M468.762 112.003C465.384 112.003 462.002 112.943 458.711 114.961 456.117 116.555 454.302 118.408 453.486 119.373 453.003 119.927 453.003 120.743 453.523 121.3 456.117 123.968 458.823 125.933 461.529 127.232 461.603 127.306 461.678 127.306 461.79 127.306 462.27 127.306 462.457 126.599 462.011 126.378 459.38 125.117 456.783 123.153 454.264 120.634 454.077 120.447 454.077 120.189 454.264 120.002 455.488 118.632 459.418 114.703 465.2 113.404L465.2 113.404C464.088 114.071 463.16 114.998 462.419 116.11 462.27 116.368 462.345 116.63 462.569 116.776 462.647 116.829 462.734 116.854 462.821 116.854 462.977 116.854 463.126 116.773 463.198 116.63 464.608 114.404 466.981 113.143 469.5 113.143 473.579 113.143 476.914 116.48 476.914 120.559 476.914 123.894 474.653 126.861 471.465 127.714 470.811 127.888 470.157 127.973 469.519 127.973 466.234 127.973 463.282 125.774 462.382 122.486 462.198 121.82 462.086 121.188 462.086 120.522 462.086 119.743 462.236 119.002 462.457 118.261 462.569 117.962 462.419 117.741 462.161 117.667 462.092 117.642 462.027 117.629 461.968 117.629 461.768 117.629 461.616 117.763 461.529 117.962 461.27 118.816 461.121 119.706 461.121 120.522 461.121 121.263 461.233 122.004 461.42 122.708 461.899 124.635 463.123 126.266 464.642 127.344 464.309 127.232 464.051 127.157 463.718 127.007 463.671 126.995 463.624 126.986 463.574 126.986 463.381 126.986 463.182 127.098 463.123 127.306 463.014 127.527 463.16 127.786 463.385 127.898 465.443 128.645 467.485 129 469.5 129 473.072 129 476.55 127.888 479.844 125.896 482.587 124.227 484.589 122.3 485.517 121.263 485.997 120.743 485.963 119.818 485.368 119.336 484.331 118.408 483.291 117.555 482.217 116.814 482.136 116.761 482.042 116.736 481.952 116.736 481.79 116.736 481.628 116.807 481.513 116.926 481.364 117.147 481.438 117.408 481.622 117.592 482.625 118.333 483.662 119.149 484.664 120.077 484.848 120.26 484.848 120.522 484.702 120.705 483.478 122.041 479.623 125.821 474.283 127.378 478.879 124.155 479.028 117.408 474.653 113.958L474.653 113.958C476.472 114.553 478.287 115.444 480.065 116.555 480.159 116.596 480.252 116.614 480.339 116.614 480.498 116.614 480.638 116.549 480.735 116.406 480.881 116.185 480.809 115.889 480.585 115.739 476.764 113.326 472.766 112.003 468.762 112.003Z" fill="#0F6FC6" fill-rule="evenodd"/><path d="M469.82 118C467.554 118 466 120.108 466.795 122.103 466.862 122.287 467.089 122.417 467.323 122.417 467.373 122.417 467.424 122.411 467.474 122.398 467.751 122.29 467.871 122.029 467.791 121.734 467.183 120.291 468.436 118.956 469.863 118.956 470.301 118.956 470.752 119.083 471.173 119.369 472.804 120.551 471.928 123.028 469.82 123.028 469.502 123.028 469.185 122.991 468.944 122.842 468.874 122.824 468.807 122.814 468.737 122.814 468.536 122.814 468.349 122.898 468.229 123.066 468.149 123.323 468.229 123.581 468.466 123.73 468.904 123.91 469.372 124 469.836 124 470.805 124 471.761 123.606 472.406 122.805 473.997 120.846 472.566 118 469.82 118Z" fill="#0F6FC6" fill-rule="evenodd"/><path d="M473.134 116.009C473.502 116.009 473.876 116.302 473.99 116.787 474.056 117.33 473.764 117.835 473.341 117.949 473.276 117.968 473.21 117.975 473.15 117.975 472.509 117.975 472.108 117.109 472.465 116.439 472.634 116.142 472.883 116.009 473.134 116.009ZM473.158 115.003C472.632 115.003 472.1 115.286 471.75 115.895 471.003 117.252 471.876 119 473.161 119 473.273 119 473.387 118.987 473.505 118.958 474.413 118.727 474.997 117.64 474.804 116.595 474.632 115.573 473.903 115.003 473.158 115.003Z" fill="#0F6FC6" fill-rule="evenodd"/><path d="M469.461 106C469.194 106 469 106.218 469 106.469L469 109.567C469 109.818 469.232 110 469.461 110 469.768 110 469.961 109.782 469.961 109.567L469.961 106.469C470 106.218 469.768 106 469.461 106Z" fill="#0F6FC6" fill-rule="evenodd"/><path d="M462.464 107.003C462.424 107.003 462.381 107.009 462.339 107.022 462.137 107.134 462 107.393 462.102 107.653L463.118 110.666C463.186 110.85 463.357 111 463.525 111 463.795 111 464 110.666 463.932 110.332L462.916 107.319C462.831 107.134 462.657 107.003 462.464 107.003Z" fill="#0F6FC6" fill-rule="evenodd"/><path d="M455.536 110C455.43 110 455.322 110.047 455.211 110.144 455.038 110.356 455.003 110.698 455.176 110.957L457.093 113.784C457.198 113.91 457.303 113.996 457.441 113.996 457.789 113.953 458 113.396 457.789 113.054L455.872 110.183C455.779 110.068 455.661 110 455.536 110Z" fill="#0F6FC6" fill-rule="evenodd"/><path d="M484.293 110.004C484.123 110.004 483.954 110.069 483.823 110.189L481.237 113.05C481.004 113.265 481.051 113.654 481.284 113.873 481.379 113.96 481.505 113.996 481.636 113.996 481.833 113.996 482.039 113.913 482.181 113.785L484.763 110.924C485 110.666 485 110.277 484.672 110.146 484.566 110.047 484.431 110.004 484.293 110.004Z" fill="#0F6FC6" fill-rule="evenodd"/><path d="M477.318 107.003C477.05 107.003 476.76 107.134 476.679 107.319L475.153 110.332C475.004 110.666 475.358 111 475.763 111 476.018 111 476.27 110.85 476.423 110.666L477.945 107.653C477.996 107.393 477.791 107.134 477.489 107.022 477.433 107.009 477.378 107.003 477.318 107.003Z" fill="#0F6FC6" fill-rule="evenodd"/><path d="M469.463 131.004C469.193 131.004 469.003 131.272 469.003 131.544L469.003 135.414C469.003 135.773 469.232 135.996 469.463 135.996 469.768 135.996 469.958 135.728 469.958 135.414L469.958 131.544C469.997 131.272 469.768 131.004 469.463 131.004Z" fill="#0F6FC6" fill-rule="evenodd"/><path d="M475.715 130C475.65 130 475.585 130.009 475.52 130.022 475.16 130.136 475.004 130.398 475.108 130.626L476.656 133.712C476.777 133.892 477.029 134 477.285 134 477.35 134 477.415 133.994 477.48 133.978 477.844 133.902 477.996 133.602 477.896 133.374L476.344 130.326C476.223 130.114 475.967 130 475.715 130Z" fill="#0F6FC6" fill-rule="evenodd"/><path d="M481.687 128.003C481.548 128.003 481.401 128.035 481.278 128.108 481.05 128.27 481.004 128.526 481.231 128.718L483.758 130.838C483.851 130.935 484.036 131 484.217 131 484.722 130.968 485 130.549 484.676 130.293L482.153 128.14C482.026 128.051 481.856 128.003 481.687 128.003Z" fill="#0F6FC6" fill-rule="evenodd"/><path d="M457.321 127C457.139 127 456.954 127.069 456.823 127.189L454.237 130.046C454.004 130.265 454.051 130.654 454.284 130.873 454.379 130.96 454.505 130.996 454.636 130.996 454.833 130.996 455.039 130.913 455.177 130.785L457.763 127.924C458 127.666 458 127.36 457.716 127.146 457.613 127.047 457.467 127 457.321 127Z" fill="#0F6FC6" fill-rule="evenodd"/><path d="M463.225 130C462.978 130 462.726 130.129 462.651 130.302L461.151 133.376C461.004 133.603 461.201 133.865 461.503 133.978 461.574 133.994 461.645 134 461.712 134 461.985 134 462.232 133.887 462.349 133.676L463.845 130.639C463.996 130.416 463.845 130.113 463.447 130.041 463.376 130.013 463.3 130 463.225 130Z" fill="#0F6FC6" fill-rule="evenodd"/></g></svg>