<svg width="87" height="74" viewBox="0 0 87 74" fill="none" xmlns="http://www.w3.org/2000/svg">
<path d="M2 60.2767L20 71.7769H69.5L85 60.2769M2 60.2767V49.7769L6.5 47.7769M2 60.2767C3.8776 59.9592 5.70884 59.6598 7.5 59.379M85 60.2769V51.2769C83.9492 48.2308 82.6149 47.5355 79 47.7769M85 60.2769C82.8687 59.9389 80.8846 59.6225 79 59.3274M6.5 47.7769L7.5 59.379M6.5 47.7769C6.5035 28.7906 10.6262 19.9678 24.5 11.2769L24.5167 11.7769M7.5 59.379C13.1682 58.4901 18.4351 57.7856 23.5 57.2698M25 26.2769C24.1311 27.589 23.8836 28.4499 24 30.2769L23.5 57.2698M25 26.2769C27.3941 22.2896 29.5286 19.649 32 17.9571M25 26.2769L24.5167 11.7769M23.5 57.2698C36.6964 55.9259 48.5213 55.8629 62.5 57.1562M62.5 57.1562C62.3418 46.1371 62.8248 39.5485 61.4415 29.2769M62.5 57.1562C68.0197 57.6669 73.007 58.3891 79 59.3274M61.4415 29.2769C61.3115 28.3117 61.165 27.3139 61 26.2769C58.8859 22.7358 56.9273 20.3096 54.5 18.637M61.4415 29.2769V10.7769M54.5 6.2769C54.8188 4.52509 57 3.77689 57.5 3.77689C58 3.77689 60.6688 4.5539 61.4415 6.2769V10.7769M54.5 6.2769V18.637M54.5 6.2769H48.5M54.5 18.637C52.801 17.4662 50.8723 16.6647 48.5 16.1084M48.5 6.2769V16.1084M48.5 6.2769C47.8196 2.68073 46.4356 2.05384 43 2.2769C39.9887 2.00269 38.7039 2.69531 37.5 6.2769V15.7334M48.5 16.1084C46.8926 15.7315 45.0814 15.4672 43 15.2769C40.9246 15.2861 39.1175 15.4207 37.5 15.7334M37.5 15.7334C35.4061 16.1381 33.6298 16.8413 32 17.9571M37 6.2769C34.8615 5.81684 33.7339 5.9509 32 7.77689M32 7.77689V17.9571M32 7.77689C31.0433 5.43203 30.0928 4.79927 28 4.27689C25.4733 5.44463 24.9223 6.2489 24.5 7.77689L24.5167 11.7769M79 47.7769V59.3274M79 47.7769V35.2769C76.1491 24.1864 73.6933 18.2926 61.4415 10.7769M29 37.2769V52.7769" stroke="#FFD700" stroke-width="3"/>
</svg>
