<svg width="42" height="42" viewBox="0 0 42 42" fill="none" xmlns="http://www.w3.org/2000/svg">
<g filter="url(#filter0_ii_54_113)">
<rect x="1" y="1" width="40" height="40" rx="20" fill="url(#paint0_linear_54_113)"/>
<rect x="1" y="1" width="40" height="40" rx="20" stroke="url(#paint1_linear_54_113)" stroke-width="1.5"/>
</g>
<path d="M17.64 13H24.36C26.92 13 29 15.08 29 17.64V24.36C29 25.5906 28.5111 26.7708 27.641 27.641C26.7708 28.5111 25.5906 29 24.36 29H17.64C15.08 29 13 26.92 13 24.36V17.64C13 16.4094 13.4889 15.2292 14.359 14.359C15.2292 13.4889 16.4094 13 17.64 13ZM17.48 14.6C16.7162 14.6 15.9836 14.9034 15.4435 15.4435C14.9034 15.9836 14.6 16.7162 14.6 17.48V24.52C14.6 26.112 15.888 27.4 17.48 27.4H24.52C25.2838 27.4 26.0164 27.0966 26.5565 26.5565C27.0966 26.0164 27.4 25.2838 27.4 24.52V17.48C27.4 15.888 26.112 14.6 24.52 14.6H17.48ZM25.2 15.8C25.4652 15.8 25.7196 15.9054 25.9071 16.0929C26.0946 16.2804 26.2 16.5348 26.2 16.8C26.2 17.0652 26.0946 17.3196 25.9071 17.5071C25.7196 17.6946 25.4652 17.8 25.2 17.8C24.9348 17.8 24.6804 17.6946 24.4929 17.5071C24.3054 17.3196 24.2 17.0652 24.2 16.8C24.2 16.5348 24.3054 16.2804 24.4929 16.0929C24.6804 15.9054 24.9348 15.8 25.2 15.8ZM21 17C22.0609 17 23.0783 17.4214 23.8284 18.1716C24.5786 18.9217 25 19.9391 25 21C25 22.0609 24.5786 23.0783 23.8284 23.8284C23.0783 24.5786 22.0609 25 21 25C19.9391 25 18.9217 24.5786 18.1716 23.8284C17.4214 23.0783 17 22.0609 17 21C17 19.9391 17.4214 18.9217 18.1716 18.1716C18.9217 17.4214 19.9391 17 21 17ZM21 18.6C20.3635 18.6 19.753 18.8529 19.3029 19.3029C18.8529 19.753 18.6 20.3635 18.6 21C18.6 21.6365 18.8529 22.247 19.3029 22.6971C19.753 23.1471 20.3635 23.4 21 23.4C21.6365 23.4 22.247 23.1471 22.6971 22.6971C23.1471 22.247 23.4 21.6365 23.4 21C23.4 20.3635 23.1471 19.753 22.6971 19.3029C22.247 18.8529 21.6365 18.6 21 18.6Z" fill="#323232"/>
<defs>
<filter id="filter0_ii_54_113" x="-0.75" y="-0.75" width="44.5" height="45.5" filterUnits="userSpaceOnUse" color-interpolation-filters="sRGB">
<feFlood flood-opacity="0" result="BackgroundImageFix"/>
<feBlend mode="normal" in="SourceGraphic" in2="BackgroundImageFix" result="shape"/>
<feColorMatrix in="SourceAlpha" type="matrix" values="0 0 0 0 0 0 0 0 0 0 0 0 0 0 0 0 0 0 127 0" result="hardAlpha"/>
<feOffset dx="-1" dy="-1"/>
<feGaussianBlur stdDeviation="2.5"/>
<feComposite in2="hardAlpha" operator="arithmetic" k2="-1" k3="1"/>
<feColorMatrix type="matrix" values="0 0 0 0 0 0 0 0 0 0 0 0 0 0 0 0 0 0 0.25 0"/>
<feBlend mode="normal" in2="shape" result="effect1_innerShadow_54_113"/>
<feColorMatrix in="SourceAlpha" type="matrix" values="0 0 0 0 0 0 0 0 0 0 0 0 0 0 0 0 0 0 127 0" result="hardAlpha"/>
<feOffset dx="2" dy="3"/>
<feGaussianBlur stdDeviation="2.5"/>
<feComposite in2="hardAlpha" operator="arithmetic" k2="-1" k3="1"/>
<feColorMatrix type="matrix" values="0 0 0 0 0 0 0 0 0 0 0 0 0 0 0 0 0 0 0.25 0"/>
<feBlend mode="normal" in2="effect1_innerShadow_54_113" result="effect2_innerShadow_54_113"/>
</filter>
<linearGradient id="paint0_linear_54_113" x1="1" y1="1" x2="39.9261" y2="1.9147" gradientUnits="userSpaceOnUse">
<stop stop-color="#FFE769"/>
<stop offset="1" stop-color="#CDAD00"/>
</linearGradient>
<linearGradient id="paint1_linear_54_113" x1="6" y1="5" x2="33" y2="35.5" gradientUnits="userSpaceOnUse">
<stop stop-color="#C1A200"/>
<stop offset="1" stop-color="#B09400"/>
</linearGradient>
</defs>
</svg>
