<svg width="242" height="273" viewBox="0 0 242 273" fill="none" xmlns="http://www.w3.org/2000/svg">
<path d="M0.0996094 -1.10419H241.667V272.542H0.0996094V-1.10419Z" fill="#FFD700"/>
<path d="M206.417 176.031C205.917 176.031 205.449 176.176 205.053 176.421L191.532 166.13C190.761 165.541 189.803 165.291 188.844 165.432C187.876 165.578 187.027 166.093 186.454 166.885C183.287 171.255 179.673 175.328 175.699 178.994C175.261 179.39 174.683 179.489 174.141 179.249C173.605 179.015 173.287 178.525 173.287 177.937V114.572C173.287 113.406 172.74 112.348 171.798 111.666C170.85 110.984 169.678 110.807 168.574 111.171L145.011 119.025C143.548 119.51 142.563 120.88 142.563 122.421V196.354C142.563 197.005 142.12 197.578 141.485 197.744C140.902 197.895 140.277 198.051 139.631 198.208C139.204 198.307 138.756 198.213 138.412 197.937C138.063 197.661 137.865 197.249 137.865 196.807V72.5827C137.865 71.3536 137.245 70.2233 136.204 69.5619C135.162 68.9004 133.876 68.8171 132.761 69.3431L109.199 80.4317C107.954 81.0202 107.146 82.2911 107.146 83.6713V197.51C107.146 197.937 106.954 198.343 106.62 198.614C106.292 198.89 105.86 198.999 105.433 198.916C103.719 198.588 101.985 198.192 100.277 197.744C99.6413 197.578 99.1986 197.005 99.1986 196.354V99.4838C99.1986 98.2494 98.5788 97.1192 97.5371 96.4577C96.4954 95.7963 95.209 95.7181 94.0944 96.2442L70.5371 107.328C69.2871 107.916 68.4798 109.187 68.4798 110.567V177.937C68.4798 178.525 68.1621 179.015 67.6204 179.255C67.084 179.489 66.5007 179.395 66.0684 178.994C64.9538 177.963 63.8809 176.916 62.8757 175.885C62.8652 175.874 62.8548 175.864 62.8444 175.848C60.1309 173.057 57.5944 170.041 55.3079 166.885C54.735 166.093 53.8861 165.578 52.9225 165.437C51.959 165.291 51.0059 165.541 50.235 166.13L36.8496 176.317C36.5007 176.135 36.0996 176.031 35.6777 176.031C34.2559 176.031 33.0996 177.187 33.0996 178.609C33.0996 180.031 34.2559 181.187 35.6777 181.187C37.0996 181.187 38.2559 180.031 38.2559 178.609C38.2559 178.4 38.2298 178.192 38.1829 177.999L51.5319 167.833C51.8444 167.598 52.2246 167.499 52.6048 167.557C52.9954 167.614 53.3392 167.822 53.5736 168.14C55.9277 171.395 58.5423 174.505 61.3392 177.38C61.3444 177.39 61.3548 177.4 61.3652 177.406C62.3861 178.463 63.4798 179.525 64.6152 180.572C65.6777 181.551 67.1621 181.796 68.485 181.218C69.8079 180.64 70.6257 179.38 70.6257 177.937V110.567C70.6257 110.015 70.9486 109.505 71.4486 109.27L95.0111 98.1817C95.4642 97.9681 95.9642 97.9994 96.3913 98.2702C96.8132 98.5358 97.0579 98.9786 97.0579 99.4838V196.354C97.0579 197.979 98.1569 199.4 99.735 199.817C101.485 200.281 103.266 200.682 105.027 201.025C105.256 201.067 105.485 201.088 105.714 201.088C106.537 201.088 107.339 200.801 107.99 200.27C108.813 199.588 109.292 198.578 109.292 197.51V83.6713C109.292 83.1192 109.615 82.6088 110.115 82.3744L133.673 71.2858C134.126 71.0723 134.631 71.1036 135.053 71.3744C135.48 71.64 135.719 72.0827 135.719 72.5827V196.807C135.719 197.911 136.214 198.937 137.084 199.619C137.943 200.301 139.053 200.551 140.126 200.296C140.787 200.135 141.428 199.979 142.032 199.817C143.605 199.406 144.709 197.979 144.709 196.354V122.421C144.709 121.801 145.105 121.255 145.688 121.057L169.251 113.208C169.693 113.062 170.162 113.13 170.542 113.406C170.923 113.676 171.141 114.104 171.141 114.572V177.937C171.141 179.38 171.959 180.635 173.282 181.218C174.605 181.796 176.089 181.546 177.152 180.567C181.23 176.812 184.943 172.63 188.193 168.14C188.428 167.822 188.766 167.614 189.157 167.557C189.542 167.499 189.923 167.598 190.23 167.833L203.87 178.218C203.85 178.343 203.839 178.479 203.839 178.609C203.839 180.031 204.99 181.187 206.417 181.187C207.839 181.187 208.99 180.031 208.99 178.609C208.99 177.187 207.839 176.031 206.417 176.031ZM158.824 186.187V141.682C159.709 141.27 160.324 140.374 160.324 139.338C160.324 137.916 159.173 136.76 157.751 136.76C156.324 136.76 155.173 137.916 155.173 139.338C155.173 140.374 155.792 141.27 156.678 141.682V186.187C155.792 186.593 155.173 187.489 155.173 188.531C155.173 189.953 156.324 191.104 157.751 191.104C159.173 191.104 160.324 189.953 160.324 188.531C160.324 187.489 159.709 186.593 158.824 186.187ZM86.2663 121.953C86.2663 120.525 85.1152 119.374 83.6882 119.374C82.2663 119.374 81.1152 120.525 81.1152 121.953C81.1152 122.989 81.7298 123.885 82.6152 124.291V191.703C81.7298 192.109 81.1152 193.005 81.1152 194.041C81.1152 195.463 82.2663 196.619 83.6882 196.619C85.1152 196.619 86.2663 195.463 86.2663 194.041C86.2663 193.005 85.6517 192.109 84.7611 191.703V124.291C85.6517 123.885 86.2663 122.989 86.2663 121.953ZM123.803 99.5254V198.937C124.693 199.343 125.308 200.239 125.308 201.281C125.308 202.703 124.152 203.859 122.73 203.859C121.308 203.859 120.157 202.703 120.157 201.281C120.157 200.239 120.771 199.343 121.657 198.937V99.5254C120.771 99.114 120.157 98.2233 120.157 97.1817C120.157 95.7598 121.308 94.6036 122.73 94.6036C124.152 94.6036 125.308 95.7598 125.308 97.1817C125.308 98.2233 124.693 99.114 123.803 99.5254Z" fill="#333333"/>
<path d="M64.9249 234.403C66.1836 234.637 67.2183 235.267 68.0289 236.291C68.8396 237.315 69.2449 238.488 69.2449 239.811C69.2449 241.005 68.9463 242.061 68.3489 242.979C67.7729 243.875 66.9303 244.579 65.8209 245.091C64.7116 245.603 63.3996 245.859 61.8849 245.859H52.2529V223.523H61.4689C62.9836 223.523 64.2849 223.768 65.3729 224.259C66.4823 224.749 67.3143 225.432 67.8689 226.307C68.4449 227.181 68.7329 228.173 68.7329 229.283C68.7329 230.584 68.3809 231.672 67.6769 232.547C66.9943 233.421 66.0769 234.04 64.9249 234.403ZM56.7329 232.739H60.8289C61.8956 232.739 62.7169 232.504 63.2929 232.035C63.8689 231.544 64.1569 230.851 64.1569 229.955C64.1569 229.059 63.8689 228.365 63.2929 227.875C62.7169 227.384 61.8956 227.139 60.8289 227.139H56.7329V232.739ZM61.2449 242.211C62.3329 242.211 63.1756 241.955 63.7729 241.443C64.3916 240.931 64.7009 240.205 64.7009 239.267C64.7009 238.307 64.3809 237.56 63.7409 237.027C63.1009 236.472 62.2369 236.195 61.1489 236.195H56.7329V242.211H61.2449ZM89.5514 228.131V245.859H85.0394V243.619C84.4634 244.387 83.7061 244.995 82.7674 245.443C81.8501 245.869 80.8474 246.083 79.7594 246.083C78.3728 246.083 77.1461 245.795 76.0794 245.219C75.0128 244.621 74.1701 243.757 73.5514 242.627C72.9541 241.475 72.6554 240.109 72.6554 238.531V228.131H77.1354V237.891C77.1354 239.299 77.4874 240.387 78.1914 241.155C78.8954 241.901 79.8554 242.275 81.0714 242.275C82.3088 242.275 83.2794 241.901 83.9834 241.155C84.6874 240.387 85.0394 239.299 85.0394 237.891V228.131H89.5514ZM96.2437 226.019C95.4543 226.019 94.793 225.773 94.2597 225.283C93.7477 224.771 93.4917 224.141 93.4917 223.395C93.4917 222.648 93.7477 222.029 94.2597 221.539C94.793 221.027 95.4543 220.771 96.2437 220.771C97.033 220.771 97.6837 221.027 98.1957 221.539C98.729 222.029 98.9957 222.648 98.9957 223.395C98.9957 224.141 98.729 224.771 98.1957 225.283C97.6837 225.773 97.033 226.019 96.2437 226.019ZM98.4517 228.131V245.859H93.9717V228.131H98.4517ZM107.358 222.179V245.859H102.878V222.179H107.358ZM110.632 236.931C110.632 235.139 110.984 233.549 111.688 232.163C112.414 230.776 113.395 229.709 114.632 228.963C115.87 228.216 117.246 227.843 118.76 227.843C119.912 227.843 121.011 228.099 122.056 228.611C123.102 229.101 123.934 229.763 124.552 230.595V222.179H129.096V245.859H124.552V243.235C123.998 244.109 123.219 244.813 122.216 245.347C121.214 245.88 120.051 246.147 118.728 246.147C117.235 246.147 115.87 245.763 114.632 244.995C113.395 244.227 112.414 243.149 111.688 241.763C110.984 240.355 110.632 238.744 110.632 236.931ZM124.584 236.995C124.584 235.907 124.371 234.979 123.944 234.211C123.518 233.421 122.942 232.824 122.216 232.419C121.491 231.992 120.712 231.779 119.88 231.779C119.048 231.779 118.28 231.981 117.576 232.387C116.872 232.792 116.296 233.389 115.848 234.179C115.422 234.947 115.208 235.864 115.208 236.931C115.208 237.997 115.422 238.936 115.848 239.747C116.296 240.536 116.872 241.144 117.576 241.571C118.302 241.997 119.07 242.211 119.88 242.211C120.712 242.211 121.491 242.008 122.216 241.603C122.942 241.176 123.518 240.579 123.944 239.811C124.371 239.021 124.584 238.083 124.584 236.995ZM152.576 245.859H148.096L137.952 230.531V245.859H133.472V223.491H137.952L148.096 238.851V223.491H152.576V245.859ZM173.483 236.611C173.483 237.251 173.44 237.827 173.355 238.339H160.395C160.502 239.619 160.95 240.621 161.739 241.347C162.528 242.072 163.499 242.435 164.651 242.435C166.315 242.435 167.499 241.72 168.203 240.291H173.035C172.523 241.997 171.542 243.405 170.091 244.515C168.64 245.603 166.859 246.147 164.747 246.147C163.04 246.147 161.504 245.773 160.139 245.027C158.795 244.259 157.739 243.181 156.971 241.795C156.224 240.408 155.851 238.808 155.851 236.995C155.851 235.16 156.224 233.549 156.971 232.163C157.718 230.776 158.763 229.709 160.107 228.963C161.451 228.216 162.998 227.843 164.747 227.843C166.432 227.843 167.936 228.205 169.259 228.931C170.603 229.656 171.638 230.691 172.363 232.035C173.11 233.357 173.483 234.883 173.483 236.611ZM168.843 235.331C168.822 234.179 168.406 233.261 167.595 232.579C166.784 231.875 165.792 231.523 164.619 231.523C163.51 231.523 162.571 231.864 161.803 232.547C161.056 233.208 160.598 234.136 160.427 235.331H168.843ZM186.545 245.859L182.897 240.355L179.665 245.859H174.865L180.657 236.963L174.801 228.131H179.857L183.473 233.603L186.737 228.131H191.537L185.713 236.963L191.601 245.859H186.545Z" fill="#333333"/>
</svg>
