<svg width="176" height="190" viewBox="0 0 176 190" fill="none" xmlns="http://www.w3.org/2000/svg">
<path d="M173.318 107.031C172.818 107.031 172.349 107.176 171.953 107.421L158.432 97.1296C157.661 96.5411 156.703 96.2911 155.745 96.4317C154.776 96.5775 153.927 97.0931 153.354 97.8848C150.188 102.255 146.573 106.328 142.599 109.994C142.161 110.39 141.583 110.489 141.042 110.249C140.505 110.015 140.188 109.525 140.188 108.937V45.5723C140.188 44.4056 139.641 43.3483 138.698 42.6661C137.75 41.9838 136.578 41.8067 135.474 42.1713L111.911 50.0254C110.448 50.5098 109.464 51.8796 109.464 53.4213V127.354C109.464 128.005 109.021 128.578 108.385 128.744C107.802 128.895 107.177 129.051 106.531 129.208C106.104 129.307 105.656 129.213 105.312 128.937C104.964 128.661 104.766 128.249 104.766 127.807V3.58272C104.766 2.35355 104.146 1.22334 103.104 0.561884C102.062 -0.0995749 100.776 -0.182908 99.6615 0.343134L76.099 11.4317C74.8542 12.0202 74.0469 13.2911 74.0469 14.6713V128.51C74.0469 128.937 73.8542 129.343 73.5208 129.614C73.1927 129.89 72.7604 129.999 72.3333 129.916C70.6198 129.588 68.8854 129.192 67.1771 128.744C66.5417 128.578 66.099 128.005 66.099 127.354V30.4838C66.099 29.2494 65.4792 28.1192 64.4375 27.4577C63.3958 26.7963 62.1094 26.7181 60.9948 27.2442L37.4375 38.3275C36.1875 38.9161 35.3802 40.1869 35.3802 41.5671V108.937C35.3802 109.525 35.0625 110.015 34.5208 110.255C33.9844 110.489 33.401 110.395 32.9688 109.994C31.8542 108.963 30.7812 107.916 29.776 106.885C29.7656 106.874 29.7552 106.864 29.7448 106.848C27.0313 104.057 24.4948 101.041 22.2083 97.8848C21.6354 97.0931 20.7865 96.5775 19.8229 96.4369C18.8594 96.2911 17.9062 96.5411 17.1354 97.1296L3.75 107.317C3.40104 107.135 3 107.031 2.57812 107.031C1.15625 107.031 0 108.187 0 109.609C0 111.031 1.15625 112.187 2.57812 112.187C4 112.187 5.15625 111.031 5.15625 109.609C5.15625 109.4 5.13021 109.192 5.08333 108.999L18.4323 98.8327C18.7448 98.5984 19.125 98.4994 19.5052 98.5567C19.8958 98.614 20.2396 98.8223 20.474 99.14C22.8281 102.395 25.4427 105.505 28.2396 108.38C28.2448 108.39 28.2552 108.4 28.2656 108.406C29.2865 109.463 30.3802 110.525 31.5156 111.572C32.5781 112.551 34.0625 112.796 35.3854 112.218C36.7083 111.64 37.526 110.38 37.526 108.937V41.5671C37.526 41.015 37.849 40.5046 38.349 40.2702L61.9115 29.1817C62.3646 28.9681 62.8646 28.9994 63.2917 29.2702C63.7135 29.5358 63.9583 29.9786 63.9583 30.4838V127.354C63.9583 128.979 65.0573 130.4 66.6354 130.817C68.3854 131.281 70.1667 131.682 71.9271 132.025C72.1562 132.067 72.3854 132.088 72.6146 132.088C73.4375 132.088 74.2396 131.801 74.8906 131.27C75.7135 130.588 76.1927 129.578 76.1927 128.51V14.6713C76.1927 14.1192 76.5156 13.6088 77.0156 13.3744L100.573 2.28584C101.026 2.0723 101.531 2.10355 101.953 2.37438C102.38 2.64001 102.62 3.08272 102.62 3.58272V127.807C102.62 128.911 103.115 129.937 103.984 130.619C104.844 131.301 105.953 131.551 107.026 131.296C107.688 131.135 108.328 130.979 108.932 130.817C110.505 130.406 111.609 128.979 111.609 127.354V53.4213C111.609 52.8015 112.005 52.2546 112.589 52.0567L136.151 44.2077C136.594 44.0619 137.062 44.1296 137.443 44.4056C137.823 44.6765 138.042 45.1036 138.042 45.5723V108.937C138.042 110.38 138.859 111.635 140.182 112.218C141.505 112.796 142.99 112.546 144.052 111.567C148.13 107.812 151.844 103.63 155.094 99.14C155.328 98.8223 155.667 98.614 156.057 98.5567C156.443 98.4994 156.823 98.5984 157.13 98.8327L170.771 109.218C170.75 109.343 170.74 109.479 170.74 109.609C170.74 111.031 171.891 112.187 173.318 112.187C174.74 112.187 175.891 111.031 175.891 109.609C175.891 108.187 174.74 107.031 173.318 107.031ZM125.724 117.187V72.6817C126.609 72.2702 127.224 71.3744 127.224 70.3379C127.224 68.9161 126.073 67.7598 124.651 67.7598C123.224 67.7598 122.073 68.9161 122.073 70.3379C122.073 71.3744 122.693 72.2702 123.578 72.6817V117.187C122.693 117.593 122.073 118.489 122.073 119.531C122.073 120.953 123.224 122.104 124.651 122.104C126.073 122.104 127.224 120.953 127.224 119.531C127.224 118.489 126.609 117.593 125.724 117.187ZM53.1667 52.9525C53.1667 51.5254 52.0156 50.3744 50.5885 50.3744C49.1667 50.3744 48.0156 51.5254 48.0156 52.9525C48.0156 53.989 48.6302 54.8848 49.5156 55.2911V122.703C48.6302 123.109 48.0156 124.005 48.0156 125.041C48.0156 126.463 49.1667 127.619 50.5885 127.619C52.0156 127.619 53.1667 126.463 53.1667 125.041C53.1667 124.005 52.5521 123.109 51.6615 122.703V55.2911C52.5521 54.8848 53.1667 53.989 53.1667 52.9525ZM90.7031 30.5254V129.937C91.5938 130.343 92.2083 131.239 92.2083 132.281C92.2083 133.703 91.0521 134.859 89.6302 134.859C88.2083 134.859 87.0573 133.703 87.0573 132.281C87.0573 131.239 87.6719 130.343 88.5573 129.937V30.5254C87.6719 30.114 87.0573 29.2233 87.0573 28.1817C87.0573 26.7598 88.2083 25.6036 89.6302 25.6036C91.0521 25.6036 92.2083 26.7598 92.2083 28.1817C92.2083 29.2233 91.5938 30.114 90.7031 30.5254Z" fill="#333333"/>
<path d="M31.88 165.403C33.1387 165.638 34.1733 166.267 34.984 167.291C35.7947 168.315 36.2 169.488 36.2 170.811C36.2 172.006 35.9013 173.062 35.304 173.979C34.728 174.875 33.8853 175.579 32.776 176.091C31.6667 176.603 30.3547 176.859 28.84 176.859H19.208V154.523H28.424C29.9387 154.523 31.24 154.768 32.328 155.259C33.4373 155.75 34.2693 156.432 34.824 157.307C35.4 158.182 35.688 159.174 35.688 160.283C35.688 161.584 35.336 162.672 34.632 163.547C33.9493 164.422 33.032 165.04 31.88 165.403ZM23.688 163.739H27.784C28.8507 163.739 29.672 163.504 30.248 163.035C30.824 162.544 31.112 161.851 31.112 160.955C31.112 160.059 30.824 159.366 30.248 158.875C29.672 158.384 28.8507 158.139 27.784 158.139H23.688V163.739ZM28.2 173.211C29.288 173.211 30.1307 172.955 30.728 172.443C31.3467 171.931 31.656 171.206 31.656 170.267C31.656 169.307 31.336 168.56 30.696 168.027C30.056 167.472 29.192 167.195 28.104 167.195H23.688V173.211H28.2ZM56.5065 159.131V176.859H51.9945V174.619C51.4185 175.387 50.6612 175.995 49.7225 176.443C48.8052 176.87 47.8025 177.083 46.7145 177.083C45.3278 177.083 44.1012 176.795 43.0345 176.219C41.9678 175.622 41.1252 174.758 40.5065 173.627C39.9092 172.475 39.6105 171.11 39.6105 169.531V159.131H44.0905V168.891C44.0905 170.299 44.4425 171.387 45.1465 172.155C45.8505 172.902 46.8105 173.275 48.0265 173.275C49.2638 173.275 50.2345 172.902 50.9385 172.155C51.6425 171.387 51.9945 170.299 51.9945 168.891V159.131H56.5065ZM63.1988 157.019C62.4094 157.019 61.7481 156.774 61.2148 156.283C60.7028 155.771 60.4468 155.142 60.4468 154.395C60.4468 153.648 60.7028 153.03 61.2148 152.539C61.7481 152.027 62.4094 151.771 63.1988 151.771C63.9881 151.771 64.6388 152.027 65.1508 152.539C65.6841 153.03 65.9508 153.648 65.9508 154.395C65.9508 155.142 65.6841 155.771 65.1508 156.283C64.6388 156.774 63.9881 157.019 63.1988 157.019ZM65.4068 159.131V176.859H60.9268V159.131H65.4068ZM74.313 153.179V176.859H69.833V153.179H74.313ZM77.5872 167.931C77.5872 166.139 77.9392 164.55 78.6432 163.163C79.3686 161.776 80.3499 160.71 81.5873 159.963C82.8246 159.216 84.2006 158.843 85.7153 158.843C86.8673 158.843 87.9659 159.099 89.0113 159.611C90.0566 160.102 90.8886 160.763 91.5073 161.595V153.179H96.0513V176.859H91.5073V174.235C90.9526 175.11 90.1739 175.814 89.1713 176.347C88.1686 176.88 87.0059 177.147 85.6833 177.147C84.1899 177.147 82.8246 176.763 81.5873 175.995C80.3499 175.227 79.3686 174.15 78.6432 172.763C77.9392 171.355 77.5872 169.744 77.5872 167.931ZM91.5393 167.995C91.5393 166.907 91.3259 165.979 90.8993 165.211C90.4726 164.422 89.8966 163.824 89.1713 163.419C88.4459 162.992 87.6673 162.779 86.8353 162.779C86.0033 162.779 85.2353 162.982 84.5312 163.387C83.8273 163.792 83.2513 164.39 82.8033 165.179C82.3766 165.947 82.1633 166.864 82.1633 167.931C82.1633 168.998 82.3766 169.936 82.8033 170.747C83.2513 171.536 83.8273 172.144 84.5312 172.571C85.2566 172.998 86.0246 173.211 86.8353 173.211C87.6673 173.211 88.4459 173.008 89.1713 172.603C89.8966 172.176 90.4726 171.579 90.8993 170.811C91.3259 170.022 91.5393 169.083 91.5393 167.995ZM119.531 176.859H115.051L104.907 161.531V176.859H100.427V154.491H104.907L115.051 169.851V154.491H119.531V176.859ZM140.438 167.611C140.438 168.251 140.395 168.827 140.31 169.339H127.35C127.457 170.619 127.905 171.622 128.694 172.347C129.483 173.072 130.454 173.435 131.606 173.435C133.27 173.435 134.454 172.72 135.158 171.291H139.99C139.478 172.998 138.497 174.406 137.046 175.515C135.595 176.603 133.814 177.147 131.702 177.147C129.995 177.147 128.459 176.774 127.094 176.027C125.75 175.259 124.694 174.182 123.926 172.795C123.179 171.408 122.806 169.808 122.806 167.995C122.806 166.16 123.179 164.55 123.926 163.163C124.673 161.776 125.718 160.71 127.062 159.963C128.406 159.216 129.953 158.843 131.702 158.843C133.387 158.843 134.891 159.206 136.214 159.931C137.558 160.656 138.593 161.691 139.318 163.035C140.065 164.358 140.438 165.883 140.438 167.611ZM135.798 166.331C135.777 165.179 135.361 164.262 134.55 163.579C133.739 162.875 132.747 162.523 131.574 162.523C130.465 162.523 129.526 162.864 128.758 163.547C128.011 164.208 127.553 165.136 127.382 166.331H135.798ZM153.5 176.859L149.852 171.355L146.62 176.859H141.82L147.612 167.963L141.756 159.131H146.812L150.428 164.603L153.692 159.131H158.492L152.668 167.963L158.556 176.859H153.5Z" fill="#333333"/>
</svg>
