<svg width="42" height="42" viewBox="0 0 42 42" fill="none" xmlns="http://www.w3.org/2000/svg">
<g filter="url(#filter0_ii_54_115)">
<rect x="1" y="1" width="40" height="40" rx="20" fill="url(#paint0_linear_54_115)"/>
<rect x="1" y="1" width="40" height="40" rx="20" stroke="url(#paint1_linear_54_115)" stroke-width="1.5"/>
</g>
<mask id="mask0_54_115" style="mask-type:luminance" maskUnits="userSpaceOnUse" x="14" y="14" width="14" height="14">
<path d="M14 14H28V28H14V14Z" fill="white"/>
</mask>
<g mask="url(#mask0_54_115)">
<path d="M25.025 14.6558H27.172L22.482 20.0298L28 27.3438H23.68L20.294 22.9088L16.424 27.3438H14.275L19.291 21.5938L14 14.6568H18.43L21.486 18.7098L25.025 14.6558ZM24.27 26.0558H25.46L17.78 15.8768H16.504L24.27 26.0558Z" fill="#323232"/>
</g>
<defs>
<filter id="filter0_ii_54_115" x="-0.75" y="-0.75" width="44.5" height="45.5" filterUnits="userSpaceOnUse" color-interpolation-filters="sRGB">
<feFlood flood-opacity="0" result="BackgroundImageFix"/>
<feBlend mode="normal" in="SourceGraphic" in2="BackgroundImageFix" result="shape"/>
<feColorMatrix in="SourceAlpha" type="matrix" values="0 0 0 0 0 0 0 0 0 0 0 0 0 0 0 0 0 0 127 0" result="hardAlpha"/>
<feOffset dx="-1" dy="-1"/>
<feGaussianBlur stdDeviation="2.5"/>
<feComposite in2="hardAlpha" operator="arithmetic" k2="-1" k3="1"/>
<feColorMatrix type="matrix" values="0 0 0 0 0 0 0 0 0 0 0 0 0 0 0 0 0 0 0.25 0"/>
<feBlend mode="normal" in2="shape" result="effect1_innerShadow_54_115"/>
<feColorMatrix in="SourceAlpha" type="matrix" values="0 0 0 0 0 0 0 0 0 0 0 0 0 0 0 0 0 0 127 0" result="hardAlpha"/>
<feOffset dx="2" dy="3"/>
<feGaussianBlur stdDeviation="2.5"/>
<feComposite in2="hardAlpha" operator="arithmetic" k2="-1" k3="1"/>
<feColorMatrix type="matrix" values="0 0 0 0 0 0 0 0 0 0 0 0 0 0 0 0 0 0 0.25 0"/>
<feBlend mode="normal" in2="effect1_innerShadow_54_115" result="effect2_innerShadow_54_115"/>
</filter>
<linearGradient id="paint0_linear_54_115" x1="1" y1="1" x2="39.9261" y2="1.9147" gradientUnits="userSpaceOnUse">
<stop stop-color="#FFE769"/>
<stop offset="1" stop-color="#CDAD00"/>
</linearGradient>
<linearGradient id="paint1_linear_54_115" x1="6" y1="5" x2="33" y2="35.5" gradientUnits="userSpaceOnUse">
<stop stop-color="#C1A200"/>
<stop offset="1" stop-color="#B09400"/>
</linearGradient>
</defs>
</svg>
